<?xml version="1.0" encoding="utf-8"?>
<!-- Generator: Adobe Illustrator 28.1.0, SVG Export Plug-In . SVG Version: 6.00 Build 0)  -->
<svg version="1.1" id="Camada_1" xmlns="http://www.w3.org/2000/svg" xmlns:xlink="http://www.w3.org/1999/xlink" x="0px" y="0px"
	 viewBox="0 0 1080 582.1" style="enable-background:new 0 0 1080 582.1;" xml:space="preserve">
<style type="text/css">
	.st0{fill:#3F3F3F;}
	.st1{fill:#2079EF;}
	.st2{fill:#549CF7;}
	.st3{fill:#83BCFF;}
</style>
<g>
	<g>
		<path class="st0" d="M159,413.9c5.6-10.4,13.1-18.5,22.6-24.3c9.5-5.8,20-8.7,31.4-8.7c9.5,0,17.9,1.8,25.3,5.4
			c7.3,3.6,13.3,8.3,17.8,13.9v-17.4h34.1v197.7H256v-82.2c-4.5,5.8-10.6,10.6-18.1,14.5c-7.6,3.9-16.1,5.8-25.6,5.8
			c-11.3,0-21.6-2.9-31.1-8.8c-9.4-5.9-16.9-14.1-22.4-24.5c-5.5-10.5-8.2-22.4-8.2-35.8C150.6,436.2,153.4,424.3,159,413.9z
			 M250.9,428.5c-3.4-6-7.8-10.5-13.2-13.5c-5.4-3.1-11.2-4.6-17.3-4.6c-6,0-11.6,1.5-17,4.6c-5.4,3.1-9.8,7.5-13.2,13.4
			c-3.4,5.9-5.1,12.9-5.1,21.1c0,8.2,1.7,15.3,5.1,21.4c3.4,6,7.8,10.6,13.2,13.7c5.4,3.1,11.1,4.6,17,4.6c6.1,0,11.9-1.5,17.3-4.6
			c5.4-3.1,9.8-7.6,13.2-13.5c3.4-6,5.1-13.1,5.1-21.3C256,441.6,254.3,434.5,250.9,428.5z"/>
		<path class="st0" d="M439.9,382.8v133.9h-34.1v-16.9c-4.4,5.8-10,10.4-17,13.7c-7,3.3-14.6,5-22.8,5c-10.5,0-19.7-2.2-27.8-6.6
			c-8.1-4.4-14.4-11-19-19.6c-4.6-8.6-6.9-18.9-6.9-30.8v-78.5h33.8v73.7c0,10.6,2.7,18.8,8,24.5c5.3,5.7,12.6,8.6,21.8,8.6
			c9.3,0,16.7-2.9,22-8.6c5.3-5.7,8-13.9,8-24.5v-73.7H439.9z"/>
		<path class="st0" d="M463,413.3c5.4-10.5,12.7-18.5,22-24.2c9.3-5.6,19.6-8.5,31.1-8.5c10,0,18.7,2,26.2,6c7.5,4,13.5,9.1,18,15.2
			v-19.1h34.1v133.9h-34.1v-19.6c-4.4,6.3-10.4,11.5-18,15.6c-7.7,4.1-16.5,6.2-26.5,6.2c-11.3,0-21.6-2.9-30.8-8.7
			c-9.3-5.8-16.6-14-22-24.5c-5.4-10.6-8.1-22.7-8.1-36.4C454.9,435.8,457.6,423.8,463,413.3z M555.4,428.6
			c-3.2-5.9-7.6-10.4-13-13.5c-5.5-3.1-11.4-4.7-17.6-4.7c-6.3,0-12.1,1.5-17.4,4.6c-5.3,3.1-9.6,7.5-12.9,13.4
			c-3.3,5.9-5,12.9-5,20.9c0,8.1,1.6,15.1,5,21.1c3.3,6,7.7,10.7,13.1,13.9c5.4,3.2,11.2,4.8,17.3,4.8c6.3,0,12.2-1.6,17.6-4.7
			c5.5-3.1,9.8-7.7,13-13.5c3.2-5.9,4.8-12.9,4.8-21.1C560.3,441.6,558.6,434.5,555.4,428.6z"/>
		<path class="st0" d="M8.1,413.3c5.4-10.5,12.7-18.5,22-24.2c9.3-5.6,19.6-8.5,31.1-8.5c10,0,18.7,2,26.2,6c7.5,4,13.5,9.1,18,15.2
			v-19.1h34.1v133.9h-34.1v-19.6c-4.4,6.3-10.4,11.5-18,15.6c-7.7,4.1-16.5,6.2-26.5,6.2c-11.3,0-21.6-2.9-30.8-8.7
			c-9.3-5.8-16.6-14-22-24.5C2.7,475.1,0,463,0,449.3C0,435.8,2.7,423.8,8.1,413.3z M100.5,428.6c-3.2-5.9-7.6-10.4-13-13.5
			c-5.5-3.1-11.4-4.7-17.6-4.7c-6.3,0-12.1,1.5-17.4,4.6c-5.3,3.1-9.6,7.5-12.9,13.4c-3.3,5.9-5,12.9-5,20.9c0,8.1,1.6,15.1,5,21.1
			c3.3,6,7.7,10.7,13.1,13.9c5.4,3.2,11.2,4.8,17.3,4.8c6.3,0,12.2-1.6,17.6-4.7c5.5-3.1,9.8-7.7,13-13.5c3.2-5.9,4.8-12.9,4.8-21.1
			C105.4,441.6,103.8,434.5,100.5,428.6z"/>
		<path class="st1" d="M639.5,513c-8.7-3.9-15.6-9.3-20.7-16.1c-5.1-6.8-7.9-14.3-8.3-22.5h34.1c0.6,5.2,3.2,9.4,7.6,12.8
			c4.4,3.4,9.9,5.1,16.6,5.1c6.4,0,11.5-1.3,15.1-3.9c3.6-2.6,5.4-5.9,5.4-9.9c0-4.4-2.2-7.6-6.6-9.8c-4.4-2.2-11.5-4.5-21.1-7.1
			c-10-2.4-18.2-4.9-24.5-7.5c-6.4-2.6-11.8-6.5-16.4-11.8c-4.6-5.3-6.9-12.5-6.9-21.5c0-7.4,2.1-14.2,6.4-20.3
			c4.3-6.1,10.4-11,18.4-14.5c8-3.5,17.4-5.3,28.2-5.3c15.9,0,28.7,4,38.2,12c9.5,8,14.7,18.7,15.7,32.3h-32.4
			c-0.5-5.3-2.7-9.5-6.6-12.7c-3.9-3.1-9.2-4.7-15.8-4.7c-6.1,0-10.8,1.1-14.1,3.4c-3.3,2.3-5,5.4-5,9.4c0,4.5,2.3,7.9,6.8,10.3
			c4.5,2.3,11.5,4.7,21,7.1c9.7,2.4,17.6,4.9,23.9,7.5c6.3,2.6,11.7,6.6,16.3,12c4.6,5.4,7,12.5,7.1,21.4c0,7.7-2.1,14.7-6.4,20.8
			c-4.3,6.1-10.4,10.9-18.4,14.4c-8,3.5-17.3,5.2-27.9,5.2C658.1,518.9,648.2,516.9,639.5,513z"/>
		<path class="st1" d="M733.6,413.3c5.4-10.5,12.7-18.5,22-24.2c9.3-5.6,19.6-8.5,31.1-8.5c10,0,18.7,2,26.2,6
			c7.5,4,13.5,9.1,18,15.2v-19.1h34.1v133.9h-34.1v-19.6c-4.4,6.3-10.4,11.5-18,15.6c-7.7,4.1-16.5,6.2-26.5,6.2
			c-11.3,0-21.6-2.9-30.8-8.7c-9.3-5.8-16.6-14-22-24.5c-5.4-10.6-8.1-22.7-8.1-36.4C725.5,435.8,728.2,423.8,733.6,413.3z
			 M826,428.6c-3.2-5.9-7.6-10.4-13-13.5c-5.5-3.1-11.4-4.7-17.6-4.7s-12.1,1.5-17.4,4.6c-5.3,3.1-9.6,7.5-12.9,13.4
			c-3.3,5.9-5,12.9-5,20.9c0,8.1,1.6,15.1,5,21.1c3.3,6,7.7,10.7,13.1,13.9c5.4,3.2,11.2,4.8,17.3,4.8c6.3,0,12.2-1.6,17.6-4.7
			c5.5-3.1,9.8-7.7,13-13.5c3.2-5.9,4.8-12.9,4.8-21.1C830.9,441.6,829.2,434.5,826,428.6z"/>
		<path class="st1" d="M946.8,410.6h-23.4v106.1h-34.3V410.6h-15.2v-27.8h15.2v-6.8c0-16.4,4.7-28.5,14-36.3
			c9.3-7.7,23.4-11.4,42.3-10.9v28.5c-8.2-0.2-13.9,1.2-17.2,4.1s-4.8,8.1-4.8,15.7v5.6h23.4V410.6z"/>
		<path class="st1" d="M1079,459.9h-97.9c0.8,9.7,4.2,17.2,10.2,22.7c6,5.5,13.3,8.2,22,8.2c12.6,0,21.5-5.4,26.8-16.2h36.5
			c-3.9,12.9-11.3,23.5-22.2,31.8c-11,8.3-24.4,12.4-40.4,12.4c-12.9,0-24.5-2.9-34.7-8.6c-10.2-5.7-18.2-13.8-23.9-24.3
			c-5.7-10.5-8.6-22.6-8.6-36.3c0-13.9,2.8-26,8.5-36.5c5.6-10.5,13.5-18.5,23.7-24.2c10.2-5.6,21.8-8.5,35-8.5
			c12.7,0,24.1,2.7,34.2,8.2c10.1,5.5,17.9,13.3,23.4,23.3c5.6,10.1,8.3,21.6,8.3,34.7C1080,451.7,1079.7,456.1,1079,459.9z
			 M1045,437.2c-0.2-8.7-3.3-15.7-9.4-20.9c-6.1-5.2-13.6-7.9-22.5-7.9c-8.4,0-15.4,2.5-21.1,7.6c-5.7,5.1-9.2,12.1-10.5,21.1H1045z
			"/>
	</g>
	<g>
		<path class="st2" d="M642.3,181.4c0.3,9-1.5,18.9-4.2,28.6c-0.6,2.3-1.5,3.5-4.3,3.2c-35-4.5-68.1,4.3-100.9,14.8
			c-21.1,6.7-41.9,14.4-63.5,19.4c-4.1,0.9-6.7,0.4-9.4-3.1c-15.5-20-23-42.4-22.1-67.7c0.1-2.2-0.1-4.1,3.2-3.9
			c24.8,1.1,48.3-5.5,71.7-12.7c25.8-7.9,51.2-17,77.7-22c12.7-2.4,25.6-3.7,38.6-3.4c2.8,0.1,4.3,1,5.3,3.6
			C638.9,151.9,642.6,165.7,642.3,181.4z"/>
		<path class="st3" d="M626.5,116.8c-26-1.7-50.9,3.1-75.5,10.4c-20.9,6.2-41.5,13.5-62.4,19.8c-14.5,4.3-29.2,7.8-44.4,8.7
			c-4,0.2-5.6-0.2-4.6-5.2c4.8-24.1,16.2-45.1,29.3-65.4c5.1-7.9,10.3-15.9,16.1-23c5.4-6.6,11.3-13.2,17.4-19.4
			c11.3-11.3,22.2-23,34.3-33.4c2-1.7,3.4-3,6-0.6c23.6,21.2,45.5,43.8,63.9,69.7c7.9,11.1,15.1,22.6,21,34.8
			C628.2,114.6,630.1,116.8,626.5,116.8z"/>
		<path class="st1" d="M540.2,292.4c-12.1,0.6-23.8-1.8-34.8-5.7c-11.5-4-22.2-10.2-31.5-18.5c-2-1.8-1.8-2.8,0.9-3.3
			c27-5,52.7-14.8,79-22.6c24.5-7.3,49.3-13.2,75.2-12.2c5.5,0.2,5.7,0.2,3,5.3C612.3,272.1,581.5,290.8,540.2,292.4z"/>
	</g>
</g>
</svg>
